<svg width="48" height="48" viewBox="0 0 48 48" fill="none" xmlns="http://www.w3.org/2000/svg">
<path fill-rule="evenodd" clip-rule="evenodd" d="M24.9972 28.2811L24.9965 18.3519L38.1431 14.8284C38.6765 14.6854 38.9931 14.1371 38.8501 13.6036C38.7071 13.0701 38.1588 12.7536 37.6253 12.8966L24.9964 16.2813L24.996 11.1646C24.996 10.7115 25.2998 10.3156 25.7366 10.1987L41.2885 6.03673C41.7683 5.90809 42.03 6.09966 42.03 6.53472V35.9567C42.03 36.6025 41.4432 37.3466 40.771 37.5268L24.2434 41.9507C24.0203 42.0133 23.9644 42.0128 23.7675 41.956L7.25912 37.5268C6.58683 37.3466 6 36.6025 6 35.9567V6.53472C6 6.09966 6.26169 5.90809 6.74103 6.03661L19.6608 9.50454C20.1942 9.64771 20.7426 9.33137 20.8858 8.79797C21.029 8.26457 20.7126 7.71609 20.1792 7.57291L7.25924 4.10491C5.5304 3.64138 4 4.7617 4 6.53472V35.9567C4 37.5188 5.20508 39.0468 6.74103 39.4586L23.2309 43.8825C23.7643 44.0368 24.1996 44.0403 24.7723 43.8795L41.2886 39.4587C42.8249 39.0468 44.03 37.5188 44.03 35.9567V6.53472C44.03 4.7617 42.4996 3.64138 40.771 4.10484L25.2195 8.26672C23.9078 8.61789 22.996 9.80632 22.996 11.1647L22.9964 16.8173L21.6933 17.1666C21.1599 17.3095 20.8433 17.8579 20.9863 18.3914C21.1293 18.9248 21.6776 19.2414 22.2111 19.0984L22.9966 18.8879L22.9973 28.8171L21.6933 29.1666C21.1599 29.3095 20.8433 29.8579 20.9863 30.3914C21.1293 30.9248 21.6776 31.2414 22.2111 31.0984L22.9974 30.8876L22.998 38.9188C22.998 39.471 23.4458 39.9187 23.9981 39.9187C24.5504 39.9186 24.998 39.4709 24.998 38.9186L24.9974 30.3516L38.1431 26.8284C38.6765 26.6854 38.9931 26.1371 38.8501 25.6036C38.7071 25.0701 38.1588 24.7536 37.6253 24.8966L24.9972 28.2811ZM28.3215 23.4193L38.2215 20.8293C38.7558 20.6895 39.0756 20.1431 38.9358 19.6088C38.7961 19.0745 38.2496 18.7547 37.7153 18.8944L27.8153 21.4844C27.281 21.6242 26.9612 22.1707 27.101 22.705C27.2407 23.2393 27.7872 23.5591 28.3215 23.4193ZM31.1734 34.6964L28.2774 35.4724C27.744 35.6154 27.1956 35.2988 27.0527 34.7653C26.9097 34.2318 27.2263 33.6835 27.7598 33.5406L30.6558 32.7646C31.1892 32.6216 31.7376 32.9382 31.8805 33.4717C32.0235 34.0051 31.7069 34.5535 31.1734 34.6964Z" fill="#5F7164"/>
</svg>
