<svg width="42" height="42" viewBox="0 0 42 42" fill="none" xmlns="http://www.w3.org/2000/svg">
<g clip-path="url(#clip0_3_637)">
<path d="M32.639 22.5611C32.639 22.5611 28.047 17.8791 21.719 17.8791C15.536 17.8791 9.424 22.5611 9.424 22.5611L5.991 21.1281V25.3321C6.532 25.5161 6.928 26.0141 6.928 26.6171C6.928 27.2261 6.524 27.7251 5.975 27.9051L6.99 30.7361H3.994L5.018 27.8811C4.526 27.6721 4.182 27.1861 4.182 26.6171C4.182 26.0601 4.516 25.5861 4.993 25.3701V20.7111L0 18.6291L21.969 8.76807L42.125 18.7531L32.639 22.5611ZM21.469 20.2511C27.835 20.2511 30.955 23.6211 30.955 23.6211V30.6111C30.955 30.6111 27.71 33.2321 20.97 33.2321C14.23 33.2321 11.983 30.6111 11.983 30.6111V23.6211C11.983 23.6211 15.103 20.2511 21.469 20.2511ZM21.344 31.7341C25.756 31.7341 29.333 30.8391 29.333 29.7371C29.333 28.6351 25.756 27.7401 21.344 27.7401C16.932 27.7401 13.356 28.6351 13.356 29.7371C13.356 30.8391 16.932 31.7341 21.344 31.7341Z" fill="#5F7164" stroke="#5F7164"/>
</g>
<defs>
<clipPath id="clip0_3_637">
<rect width="42" height="42" fill="white"/>
</clipPath>
</defs>
</svg>
