<svg width="393" height="588" viewBox="0 0 393 588" fill="none" xmlns="http://www.w3.org/2000/svg">
<g clip-path="url(#clip0_2_120)">
<path d="M428.506 184.199C428.782 134.421 423.658 139.067 423.658 139.067C423.658 139.067 424.535 132.201 383.919 160.88C349.403 185.253 361.165 231.277 365.477 244.55C366.161 246.653 368.401 247.823 370.517 247.182C383.861 243.135 428.272 226.494 428.506 184.199Z" fill="#F6BCB3" stroke="#5F7164"/>
<path d="M279.063 230.856C250.224 190.169 257.098 191.069 257.098 191.069C257.098 191.069 252.431 185.933 302.244 186.38C344.549 186.76 361.357 231.153 365.463 244.526C366.116 246.65 364.938 248.904 362.823 249.583C349.515 253.855 303.552 265.407 279.063 230.856Z" fill="#F6BCB3" stroke="#5F7164"/>
<path d="M302.245 186.38C252.433 185.933 257.099 191.07 257.099 191.07C257.099 191.07 255.652 190.883 256.876 194.615C262.388 193.479 273.767 192.465 297.073 192.674C338.948 193.05 355.84 236.544 360.161 250.398C361.151 250.109 362.046 249.834 362.823 249.584C364.938 248.905 366.116 246.651 365.464 244.527C361.358 231.154 344.549 186.76 302.245 186.38Z" fill="black" stroke="#5F7164"/>
<path d="M460.84 286.605C461.116 236.828 455.992 241.473 455.992 241.473C455.992 241.473 456.869 234.607 416.253 263.286C381.737 287.66 393.499 333.682 397.811 346.957C398.494 349.059 400.735 350.23 402.851 349.588C416.195 345.541 460.605 328.901 460.84 286.605Z" fill="#F6BCB3" stroke="#5F7164"/>
<path d="M311.396 333.263C282.557 292.576 289.431 293.476 289.431 293.476C289.431 293.476 284.764 288.34 334.577 288.787C376.882 289.167 393.69 333.56 397.797 346.933C398.448 349.056 397.271 351.311 395.156 351.99C381.848 356.261 335.886 367.813 311.396 333.263Z" fill="#F6BCB3" stroke="#5F7164"/>
<path d="M229.445 284.389C186.928 258.305 188.279 265.102 188.279 265.102C188.279 265.102 182.845 260.787 186.572 310.439C189.738 352.612 235.17 366.451 248.786 369.663C250.948 370.173 253.119 368.851 253.657 366.697C257.044 353.142 265.548 306.539 229.445 284.389Z" fill="#F6BCB3" stroke="#5F7164"/>
<path d="M192.71 436.513C143.037 440.067 147.337 434.652 147.337 434.652C147.337 434.652 140.54 435.979 166.495 393.58C188.553 357.549 235.271 366.248 248.807 369.675C250.951 370.218 252.267 372.378 251.765 374.532C248.602 388.111 234.915 433.494 192.71 436.513Z" fill="#F6BCB3" stroke="#5F7164"/>
<path d="M333.804 309.892C291.287 283.809 292.638 290.606 292.638 290.606C292.638 290.606 287.204 286.29 290.931 335.942C294.097 378.115 339.529 391.954 353.146 395.167C355.307 395.676 357.478 394.354 358.017 392.2C361.403 378.646 369.909 332.042 333.804 309.892Z" fill="#F6BCB3" stroke="#5F7164"/>
<path d="M297.07 462.017C247.397 465.571 251.697 460.156 251.697 460.156C251.697 460.156 244.9 461.483 270.855 419.084C292.913 383.053 339.631 391.752 353.167 395.179C355.311 395.722 356.627 397.881 356.125 400.035C352.963 413.614 339.275 458.997 297.07 462.017Z" fill="#F6BCB3" stroke="#5F7164"/>
<path d="M423.659 139.067C423.659 139.067 424.536 132.2 383.92 160.879C378.335 164.823 373.968 169.335 370.58 174.181C372.961 171.7 375.667 169.349 378.748 167.173C419.365 138.493 418.487 145.36 418.487 145.36C418.487 145.36 423.611 140.715 423.335 190.492C423.264 203.262 419.163 213.69 413.108 222.142C421.887 212.747 428.416 200.343 428.506 184.198C428.782 134.421 423.659 139.067 423.659 139.067Z" fill="black" stroke="#5F7164"/>
<path d="M334.578 288.787C284.765 288.341 289.432 293.476 289.432 293.476C289.432 293.476 287.985 293.29 289.209 297.022C294.721 295.886 306.1 294.872 329.406 295.081C371.281 295.457 388.173 338.951 392.494 352.805C393.484 352.516 394.379 352.241 395.157 351.991C397.271 351.312 398.449 349.058 397.797 346.934C393.691 333.561 376.882 289.167 334.578 288.787Z" fill="black" stroke="#5F7164"/>
<path d="M229.445 284.389C186.928 258.305 188.279 265.102 188.279 265.102C188.279 265.102 186.656 263.814 185.793 270.748C189.793 271.521 199.715 275.616 224.273 290.683C257.885 311.303 252.834 353.113 249.244 369.724C251.246 369.962 253.157 368.698 253.657 366.696C257.044 353.142 265.548 306.539 229.445 284.389Z" fill="black" stroke="#5F7164"/>
<path d="M248.807 369.675C235.684 366.353 191.367 358.076 168.578 390.414C192.344 365.526 231.445 372.883 243.635 375.968C245.779 376.512 247.095 378.671 246.593 380.825C244.915 388.03 240.274 404.189 229.983 418.222C243.943 403.086 249.829 382.847 251.765 374.531C252.266 372.377 250.951 370.218 248.807 369.675Z" fill="black" stroke="#5F7164"/>
<path d="M333.804 309.892C291.287 283.809 292.638 290.606 292.638 290.606C292.638 290.606 291.016 289.318 290.152 296.252C294.152 297.024 304.074 301.12 328.633 316.186C362.245 336.807 357.194 378.616 353.603 395.227C355.605 395.465 357.516 394.201 358.016 392.2C361.403 378.646 369.909 332.042 333.804 309.892Z" fill="black" stroke="#5F7164"/>
<path d="M353.167 395.179C340.044 391.857 295.727 383.58 272.938 415.918C296.704 391.03 335.805 398.387 347.995 401.472C350.139 402.015 351.456 404.174 350.953 406.329C349.275 413.534 344.634 429.693 334.342 443.727C348.303 428.59 354.189 408.352 356.125 400.035C356.626 397.88 355.311 395.721 353.167 395.179Z" fill="black" stroke="#5F7164"/>
<path d="M422.406 413.806C421.68 414.689 420.699 415.379 419.528 415.748C416.311 416.764 412.879 414.979 411.863 411.762L329.396 150.058C328.379 146.84 330.166 143.406 333.382 142.393C336.6 141.376 340.031 143.161 341.047 146.379L423.514 408.083C424.16 410.13 423.673 412.264 422.406 413.806Z" fill="black" stroke="#5F7164"/>
<path d="M422.058 414.732C420.614 416.49 418.241 417.367 415.884 416.791L155.58 352.939C152.302 352.138 150.295 348.832 151.095 345.554C151.897 342.276 155.203 340.268 158.48 341.07L418.785 404.921C422.063 405.722 424.07 409.028 423.269 412.307C423.044 413.226 422.622 414.046 422.058 414.732Z" fill="black" stroke="#5F7164"/>
<path d="M337.57 72.8073C302.542 37.2929 302.219 44.2094 302.219 44.2094C302.219 44.2094 297.979 38.7177 289.651 87.7674C282.576 129.436 323.399 153.777 335.846 160.16C337.819 161.172 340.242 160.411 341.283 158.453C347.834 146.125 367.317 102.967 337.57 72.8073Z" fill="#F6BCB3" stroke="#5F7164"/>
<path d="M302.219 44.2094C302.219 44.2094 300.841 42.4309 298.116 49.9743C300.475 50.2324 308.055 54.418 332.399 79.1003C359.396 106.472 345.845 144.549 338.211 160.569C339.474 160.407 340.642 159.66 341.283 158.452C347.834 146.125 367.316 102.966 337.57 72.8062C302.542 37.293 302.219 44.2094 302.219 44.2094Z" fill="black" stroke="#5F7164"/>
<path d="M87.2996 304.375C38.8828 315.911 44.6438 319.779 44.6438 319.779C44.6438 319.779 37.7604 320.556 75.5202 353.153C107.586 380.834 149.384 358.563 161.261 351.217C163.15 350.049 163.749 347.58 162.608 345.677C155.413 333.679 128.426 294.576 87.2996 304.375Z" fill="#F6BCB3" stroke="#5F7164"/>
<path d="M87.2997 304.374C38.8828 315.911 44.6438 319.779 44.6438 319.779C44.6438 319.779 43.6554 319.893 44.4859 321.809C49.8856 319.378 60.6969 315.774 82.1282 310.668C123.255 300.868 150.242 339.972 157.437 351.97C157.672 352.362 157.815 352.78 157.907 353.205C159.199 352.471 160.324 351.797 161.263 351.217C163.151 350.049 163.75 347.58 162.609 345.676C155.413 333.678 128.426 294.575 87.2997 304.374Z" fill="black" stroke="#5F7164"/>
<path d="M347.923 164.933C344.951 168.549 339.726 169.749 335.415 167.539C321.86 160.588 278.232 134.357 285.986 88.6893C288.855 71.792 291.581 59.3478 294.088 51.7014C296.132 45.4661 298.344 41.1011 302.494 40.0647C302.55 40.0505 302.606 40.0375 302.662 40.025C302.704 40.0076 302.748 39.9906 302.79 39.9749C306.782 38.4457 311.101 40.7611 316.357 44.7082C322.808 49.5529 332.201 58.2176 344.277 70.4608C376.882 103.519 356.163 149.85 349.035 163.263C348.716 163.865 348.342 164.423 347.923 164.933ZM306.657 52.8052C305.154 56.5741 302.175 66.3311 298.032 90.7332C291.969 126.451 325.874 148.535 339.185 155.716C345.976 142.261 361.08 104.896 335.578 79.0402C323.925 67.2256 314.991 58.9617 309.02 54.4774C308.061 53.7581 307.281 53.2152 306.657 52.8052ZM299.748 49.8938C299.748 49.8938 299.748 49.8949 299.749 49.8955C299.748 49.8949 299.748 49.8943 299.748 49.8938Z" fill="#5F7164"/>
<path d="M310.68 46.4381C310.68 46.4404 310.679 46.4428 310.68 46.4451M347.923 164.933C344.951 168.549 339.726 169.749 335.415 167.539C321.86 160.588 278.232 134.357 285.986 88.6893C288.855 71.792 291.581 59.3478 294.088 51.7014C296.132 45.4661 298.344 41.1011 302.494 40.0647C302.55 40.0505 302.606 40.0375 302.662 40.025C302.704 40.0076 302.748 39.9906 302.79 39.9749C306.782 38.4457 311.101 40.7611 316.357 44.7082C322.808 49.5529 332.201 58.2176 344.277 70.4608C376.882 103.519 356.163 149.85 349.035 163.263C348.716 163.865 348.342 164.423 347.923 164.933ZM306.657 52.8052C305.154 56.5741 302.175 66.3311 298.032 90.7332C291.969 126.451 325.874 148.535 339.185 155.716C345.976 142.261 361.08 104.896 335.578 79.0402C323.925 67.2256 314.991 58.9617 309.02 54.4774C308.061 53.7581 307.281 53.2152 306.657 52.8052ZM299.748 49.8938C299.748 49.8938 299.748 49.8949 299.749 49.8955C299.748 49.8949 299.748 49.8943 299.748 49.8938Z" stroke="#5F7164"/>
<path d="M422.99 224.818C407.713 243.411 384.154 252.089 374.648 254.971C369.385 256.566 363.722 253.61 362.024 248.38C357.319 233.896 344.901 184.562 382.754 157.833C396.75 147.95 407.493 141.105 414.682 137.49C420.54 134.544 425.191 133.034 428.853 135.236C428.899 135.264 428.946 135.292 428.991 135.322C429.037 135.341 429.08 135.361 429.126 135.38C433.027 137.122 434.45 141.805 435.385 148.299C436.534 156.274 437.068 169.017 436.973 186.176C436.884 202.264 431.105 214.942 422.99 224.818ZM373.039 242.669C382.32 239.641 401.187 232.008 413.385 217.166C420.023 209.089 424.684 198.879 424.755 186.109C424.893 161.228 423.634 151.107 422.805 147.162C419.098 148.738 410.089 153.49 389.803 167.815C360.235 188.693 368.675 228.214 373.039 242.669Z" fill="#5F7164"/>
<path d="M430.113 145.542C430.113 145.542 430.114 145.542 430.114 145.541M419.956 140.245C419.956 140.246 419.956 140.246 419.956 140.247M422.99 224.818C407.713 243.411 384.154 252.089 374.648 254.971C369.385 256.566 363.722 253.61 362.024 248.38C357.319 233.896 344.901 184.562 382.754 157.833C396.75 147.95 407.493 141.105 414.682 137.49C420.54 134.544 425.191 133.034 428.853 135.236C428.899 135.264 428.946 135.292 428.991 135.322C429.037 135.341 429.08 135.361 429.126 135.38C433.027 137.122 434.45 141.805 435.385 148.299C436.534 156.274 437.068 169.017 436.973 186.176C436.884 202.264 431.105 214.942 422.99 224.818ZM373.039 242.669C382.32 239.641 401.187 232.008 413.385 217.166C420.023 209.089 424.684 198.879 424.755 186.109C424.893 161.228 423.634 151.107 422.805 147.162C419.098 148.738 410.089 153.49 389.803 167.815C360.235 188.693 368.675 228.214 373.039 242.669Z" stroke="#5F7164"/>
<path d="M371.769 254.132C370.572 255.589 368.962 256.729 367.047 257.343C352.577 261.987 303.277 274.199 276.436 236.332C266.497 222.308 259.611 211.55 255.97 204.355C253.003 198.489 251.478 193.833 253.686 190.168C253.711 190.126 253.736 190.084 253.763 190.043C253.784 189.993 253.805 189.943 253.828 189.894C255.575 185.99 260.267 184.581 266.772 183.668C274.748 182.549 287.495 182.059 304.656 182.213C351.018 182.63 369.195 230.128 373.662 244.676C374.697 248.048 373.869 251.577 371.769 254.132ZM286.405 229.267C307.404 258.893 346.897 250.622 361.36 246.314C356.621 231.962 340.82 194.758 304.548 194.432C279.753 194.21 269.611 195.423 265.634 196.237C267.239 199.97 272.043 209.003 286.405 229.267Z" fill="#5F7164"/>
<path d="M363.315 245.709L363.32 245.703M258.681 199.072C258.682 199.071 258.684 199.072 258.685 199.072M258.663 199.07C258.667 199.07 258.671 199.071 258.675 199.071M263.985 188.911C263.985 188.911 263.985 188.911 263.986 188.912M371.769 254.132C370.572 255.589 368.962 256.729 367.047 257.343C352.577 261.987 303.277 274.199 276.436 236.332C266.497 222.308 259.611 211.55 255.97 204.355C253.003 198.489 251.478 193.833 253.686 190.168C253.711 190.126 253.736 190.084 253.763 190.043C253.784 189.993 253.805 189.943 253.828 189.894C255.575 185.99 260.267 184.581 266.772 183.668C274.748 182.549 287.495 182.059 304.656 182.213C351.018 182.63 369.195 230.128 373.662 244.676C374.697 248.048 373.869 251.577 371.769 254.132ZM286.405 229.267C307.404 258.893 346.897 250.622 361.36 246.314C356.621 231.962 340.82 194.758 304.548 194.432C279.753 194.21 269.611 195.423 265.634 196.237C267.239 199.97 272.043 209.003 286.405 229.267Z" stroke="#5F7164"/>
<path d="M455.323 327.225C440.046 345.817 416.488 354.495 406.982 357.377C401.72 358.973 396.057 356.017 394.358 350.789C389.654 336.302 377.241 286.963 415.087 260.24C429.084 250.357 439.826 243.512 447.015 239.897C452.873 236.951 457.524 235.441 461.186 237.643C461.233 237.671 461.279 237.699 461.324 237.729C461.37 237.748 461.413 237.768 461.459 237.787C465.36 239.529 466.783 244.212 467.718 250.706C468.867 258.681 469.401 271.424 469.306 288.583C469.217 304.671 463.44 317.348 455.323 327.225ZM405.372 345.075C414.653 342.047 433.521 334.414 445.718 319.571C452.356 311.494 457.017 301.285 457.088 288.514C457.226 263.633 455.967 253.513 455.138 249.568C451.43 251.143 442.421 255.895 422.135 270.22C392.568 291.099 401.009 330.62 405.372 345.075Z" fill="#5F7164"/>
<path d="M462.446 247.949C462.446 247.949 462.447 247.949 462.447 247.948M452.29 242.652C452.289 242.653 452.289 242.653 452.289 242.654M455.323 327.225C440.046 345.817 416.488 354.495 406.982 357.377C401.72 358.973 396.057 356.017 394.358 350.789C389.654 336.302 377.241 286.963 415.087 260.24C429.084 250.357 439.826 243.512 447.015 239.897C452.873 236.951 457.524 235.441 461.186 237.643C461.233 237.671 461.279 237.699 461.324 237.729C461.37 237.748 461.413 237.768 461.459 237.787C465.36 239.529 466.783 244.212 467.718 250.706C468.867 258.681 469.401 271.424 469.306 288.583C469.217 304.671 463.44 317.348 455.323 327.225ZM405.372 345.075C414.653 342.047 433.521 334.414 445.718 319.571C452.356 311.494 457.017 301.285 457.088 288.514C457.226 263.633 455.967 253.513 455.138 249.568C451.43 251.143 442.421 255.895 422.135 270.22C392.568 291.099 401.009 330.62 405.372 345.075Z" stroke="#5F7164"/>
<path d="M404.091 356.549C402.895 358.004 401.288 359.143 399.381 359.754C392.569 361.935 378.828 365.564 363.317 365.358C359.943 365.313 357.244 362.542 357.289 359.169C357.333 355.796 360.105 353.097 363.479 353.141C375.912 353.306 387.136 350.675 393.693 348.724C388.471 332.939 372.693 297.161 336.883 296.839C315.452 296.648 305.015 297.523 300.034 298.29C299.213 298.417 298.533 298.541 297.972 298.657C299.133 301.72 297.663 305.176 294.618 306.451C291.506 307.755 287.926 306.289 286.623 303.176C285.165 299.698 283.991 295.737 286.086 292.46C286.927 290.42 288.712 288.867 291.413 287.832C293.092 287.187 295.304 286.657 298.173 286.214C306.069 284.997 319.13 284.462 336.993 284.621C356.336 284.795 372.936 293.16 386.334 309.483C396.996 322.474 402.847 337.419 405.387 345.173L405.507 345.526C405.52 345.565 405.533 345.606 405.546 345.646L405.799 346.449C405.846 346.591 405.891 346.734 405.932 346.882L406.005 347.126C407.017 350.489 406.182 354.004 404.091 356.549Z" fill="#5F7164"/>
<path d="M291.009 301.48C291.011 301.48 291.012 301.48 291.014 301.481M290.992 301.478C290.996 301.478 291 301.479 291.004 301.479M296.308 291.312C296.309 291.312 296.309 291.313 296.309 291.313M404.091 356.549C402.895 358.004 401.288 359.143 399.381 359.754C392.569 361.935 378.828 365.564 363.317 365.358C359.943 365.313 357.244 362.542 357.289 359.169C357.333 355.796 360.105 353.097 363.479 353.141C375.912 353.306 387.136 350.675 393.693 348.724C388.471 332.939 372.693 297.161 336.883 296.839C315.452 296.648 305.015 297.523 300.034 298.29C299.213 298.417 298.533 298.541 297.972 298.657C299.133 301.72 297.663 305.176 294.618 306.451C291.506 307.755 287.926 306.289 286.623 303.176C285.165 299.698 283.991 295.737 286.086 292.46C286.927 290.42 288.712 288.867 291.413 287.833C293.092 287.187 295.304 286.657 298.173 286.214C306.069 284.997 319.13 284.462 336.993 284.621C356.336 284.795 372.936 293.16 386.334 309.483C396.996 322.474 402.847 337.419 405.387 345.173L405.507 345.526C405.52 345.565 405.533 345.606 405.546 345.646L405.799 346.449C405.846 346.591 405.891 346.734 405.932 346.882L406.005 347.126C407.017 350.489 406.182 354.004 404.091 356.549Z" stroke="#5F7164"/>
<path d="M424.764 415.75C424.038 416.633 423.057 417.323 421.886 417.692C418.668 418.708 415.237 416.923 414.221 413.706L335.897 165.64C334.881 162.422 336.668 158.989 339.883 157.975C343.101 156.959 346.533 158.744 347.549 161.961L425.872 410.027C426.519 412.073 426.032 414.207 424.764 415.75Z" fill="#5F7164" stroke="#5F7164"/>
<path d="M169.317 356.185C168.63 357.021 167.799 357.758 166.833 358.355C153.914 366.346 109.031 390.06 73.8863 359.721C60.8701 348.485 51.6015 339.687 46.3401 333.572C42.0517 328.59 39.4549 324.434 40.7184 320.348C40.7325 320.304 40.7467 320.26 40.7609 320.215C40.7693 320.159 40.7794 320.103 40.7896 320.047C41.549 315.838 45.7612 313.343 51.8505 310.893C59.3181 307.889 71.5618 304.351 88.2413 300.376C133.316 289.636 162.373 331.417 170.205 344.479C172.465 348.246 171.974 352.952 169.317 356.185ZM53.7766 323.375C56.2325 326.618 63.0656 334.238 81.87 350.472C109.36 374.202 145.668 356.679 158.656 349.02C150.611 336.219 126.334 303.859 91.073 312.26C74.9806 316.095 63.3184 319.448 56.4104 322.227C55.3085 322.671 54.4466 323.054 53.7766 323.375Z" fill="#5F7164"/>
<path d="M47.6877 327.793C47.6905 327.792 47.6935 327.793 47.6969 327.792M50.4069 316.649C50.4088 316.651 50.4106 316.653 50.4124 316.653M169.317 356.185C168.63 357.021 167.799 357.758 166.833 358.355C153.914 366.346 109.031 390.06 73.8863 359.721C60.8701 348.485 51.6015 339.687 46.3401 333.572C42.0517 328.59 39.4549 324.434 40.7184 320.348C40.7325 320.304 40.7467 320.26 40.7609 320.215C40.7693 320.159 40.7794 320.103 40.7896 320.047C41.549 315.838 45.7612 313.343 51.8505 310.893C59.3181 307.889 71.5618 304.351 88.2413 300.376C133.316 289.636 162.373 331.417 170.205 344.479C172.465 348.246 171.974 352.952 169.317 356.185ZM53.7766 323.375C56.2325 326.618 63.0656 334.238 81.87 350.472C109.36 374.202 145.668 356.679 158.656 349.02C150.611 336.219 126.334 303.859 91.073 312.26C74.9806 316.095 63.3184 319.448 56.4104 322.227C55.3085 322.671 54.4466 323.054 53.7766 323.375Z" stroke="#5F7164"/>
<path d="M259.95 374.078C257.557 376.99 253.627 378.469 249.741 377.553C234.923 374.056 186.307 359.058 182.837 312.84C181.553 295.734 181.202 282.989 181.794 274.959C182.277 268.411 183.372 263.641 187.153 261.636C187.202 261.61 187.252 261.585 187.302 261.559C187.341 261.531 187.379 261.504 187.418 261.476C190.928 259.032 195.675 260.244 201.725 262.818C209.147 265.974 220.342 272.134 234.997 281.125C274.566 305.4 265.624 355.381 261.942 370.121C261.568 371.616 260.873 372.954 259.95 374.078ZM194.26 272.996C193.709 277.015 193.166 287.209 195.021 311.925C197.736 348.083 235.924 361.39 250.561 365.169C253.908 350.463 259.555 310.532 228.607 291.539C207.421 278.542 198.09 274.349 194.26 272.996ZM196.632 265.872C196.632 265.873 196.632 265.874 196.633 265.875C196.632 265.874 196.632 265.872 196.632 265.872ZM196.629 265.855C196.63 265.857 196.63 265.861 196.631 265.865C196.63 265.862 196.629 265.858 196.629 265.855Z" fill="#5F7164" stroke="#5F7164"/>
<path d="M239.627 421.129C229.746 433.154 215.586 443.114 195.505 444.55C178.38 445.775 165.623 446.082 157.586 445.462C151.042 444.956 146.275 443.845 144.281 440.066C144.259 440.024 144.238 439.982 144.216 439.939C144.183 439.894 144.151 439.849 144.119 439.803C141.681 436.293 142.883 431.553 145.438 425.516C148.575 418.107 154.7 406.943 163.643 392.333C187.829 352.825 237.894 361.956 252.663 365.695C257.996 367.044 261.32 372.501 260.073 377.859C258.121 386.241 252.516 405.443 239.627 421.129ZM194.632 432.363C230.793 429.775 243.966 391.666 247.691 377.063C232.972 373.663 192.958 367.843 174.064 398.714C165.436 412.808 159.591 423.428 156.69 430.28C156.221 431.389 155.881 432.28 155.635 432.985C159.638 433.552 169.835 434.137 194.632 432.363ZM154.486 440.385L154.485 440.386L154.486 440.385Z" fill="#5F7164" stroke="#5F7164"/>
<path d="M364.31 399.581C361.918 402.493 357.987 403.972 354.102 403.056C339.283 399.56 290.668 384.561 287.198 338.343C285.914 321.237 285.563 308.492 286.155 300.462C286.637 293.913 287.734 289.143 291.513 287.139C291.563 287.113 291.612 287.088 291.662 287.063C291.701 287.035 291.739 287.008 291.778 286.979C295.288 284.535 300.035 285.748 306.085 288.321C313.508 291.479 324.702 297.638 339.357 306.629C378.927 330.905 369.985 380.884 366.302 395.624C365.928 397.119 365.234 398.457 364.31 399.581ZM298.62 298.499C298.069 302.519 297.527 312.712 299.382 337.428C302.097 373.586 340.285 386.894 354.923 390.673C358.269 375.967 363.917 336.035 332.968 317.043C311.782 304.046 302.45 299.852 298.62 298.499ZM300.989 291.357C300.99 291.36 300.99 291.364 300.991 291.368C300.991 291.364 300.99 291.361 300.989 291.357Z" fill="#5F7164"/>
<path d="M291.205 297.339C291.205 297.34 291.205 297.34 291.206 297.34M364.31 399.581C361.918 402.493 357.987 403.972 354.102 403.056C339.283 399.56 290.668 384.561 287.198 338.343C285.914 321.237 285.563 308.492 286.155 300.462C286.637 293.913 287.734 289.143 291.513 287.139C291.563 287.113 291.612 287.088 291.662 287.063C291.701 287.035 291.739 287.008 291.778 286.979C295.288 284.535 300.035 285.748 306.085 288.321C313.508 291.479 324.702 297.638 339.357 306.629C378.927 330.905 369.985 380.884 366.302 395.624C365.928 397.119 365.234 398.457 364.31 399.581ZM298.62 298.499C298.069 302.519 297.527 312.712 299.382 337.428C302.097 373.586 340.285 386.894 354.923 390.673C358.269 375.967 363.917 336.035 332.968 317.043C311.782 304.046 302.45 299.852 298.62 298.499ZM300.989 291.357C300.99 291.36 300.99 291.364 300.991 291.368C300.991 291.364 300.99 291.361 300.989 291.357Z" stroke="#5F7164"/>
<path d="M343.988 446.632C334.107 458.657 319.945 468.616 299.865 470.053C282.741 471.279 269.983 471.585 261.947 470.965C255.403 470.459 250.635 469.348 248.641 465.569C248.619 465.527 248.598 465.484 248.576 465.443C248.543 465.398 248.511 465.352 248.479 465.306C246.041 461.796 247.243 457.056 249.799 451.019C252.935 443.609 259.06 432.446 268.003 417.836C292.188 378.331 342.254 387.459 357.023 391.197C362.357 392.547 365.68 398.005 364.433 403.362C362.48 411.746 356.875 430.946 343.988 446.632ZM259.983 458.486C263.977 459.053 274.165 459.643 298.991 457.866C314.996 456.721 326.5 448.614 334.673 438.67C344.965 426.146 349.973 410.706 352.051 402.566C337.332 399.166 297.32 393.345 278.424 424.217C265.467 445.382 261.314 454.683 259.983 458.486ZM258.847 465.888L258.846 465.889L258.847 465.888ZM252.894 456.101L252.895 456.101L252.894 456.101Z" fill="#5F7164" stroke="#5F7164"/>
<path d="M424.416 416.674C422.972 418.432 420.599 419.309 418.242 418.733L165.444 356.956C162.166 356.155 160.158 352.849 160.959 349.571C161.761 346.293 165.067 344.285 168.344 345.087L421.142 406.865C424.42 407.665 426.427 410.971 425.626 414.25C425.402 415.169 424.979 415.989 424.416 416.674Z" fill="#5F7164" stroke="#5F7164"/>
</g>
<defs>
<clipPath id="clip0_2_120">
<rect width="417.065" height="417.065" fill="white" transform="translate(0 322.235) rotate(-50.5903)"/>
</clipPath>
</defs>
</svg>
