<svg width="431" height="423" viewBox="0 0 431 423" fill="none" xmlns="http://www.w3.org/2000/svg">
<g clip-path="url(#clip0_2_64)">
<path d="M16.0668 253.692C20.2338 303.295 24.9226 298.211 24.9226 298.211C24.9226 298.211 24.6622 305.128 62.5565 272.938C94.7601 245.582 78.9374 200.792 73.4579 187.956C72.5897 185.923 70.2539 184.957 68.2034 185.785C55.2738 191.006 12.5255 211.544 16.0668 253.692Z" fill="#F6BCB3" stroke="#5F7164"/>
<path d="M160.749 193.884C193.104 231.835 186.177 231.552 186.177 231.552C186.177 231.552 191.284 236.251 141.63 240.251C99.4603 243.649 78.757 200.932 73.4739 187.979C72.6346 185.922 73.6064 183.572 75.6522 182.707C88.5265 177.265 133.275 161.657 160.749 193.884Z" fill="#F6BCB3" stroke="#5F7164"/>
<path d="M141.63 240.251C191.283 236.251 186.177 231.552 186.177 231.552C186.177 231.552 187.635 231.608 186.082 228C180.694 229.624 169.451 231.649 146.219 233.521C104.478 236.883 83.7713 195.071 78.2312 181.657C77.2706 182.034 76.4043 182.388 75.652 182.706C73.6061 183.57 72.6344 185.921 73.4737 187.978C78.7563 200.932 99.4597 243.648 141.63 240.251Z" fill="black" stroke="#5F7164"/>
<path d="M-25.277 154.58C-21.1099 204.183 -16.4212 199.099 -16.4212 199.099C-16.4212 199.099 -16.6815 206.016 21.2127 173.826C53.4163 146.47 37.5932 101.681 32.1141 88.8442C31.2459 86.8107 28.9101 85.845 26.8597 86.6731C13.93 91.8943 -28.8178 112.431 -25.277 154.58Z" fill="#F6BCB3" stroke="#5F7164"/>
<path d="M119.406 94.771C151.761 132.722 144.834 132.439 144.834 132.439C144.834 132.439 149.941 137.138 100.287 141.139C58.1171 144.536 37.4137 101.819 32.1306 88.8663C31.292 86.8096 32.2631 84.4588 34.3089 83.5941C47.1828 78.1524 91.931 62.5446 119.406 94.771Z" fill="#F6BCB3" stroke="#5F7164"/>
<path d="M205.392 136.136C250.067 158.322 248.115 151.672 248.115 151.672C248.115 151.672 253.913 155.486 245.769 106.364C238.852 64.6427 192.366 54.9131 178.518 52.9284C176.32 52.6137 174.275 54.1242 173.931 56.3178C171.767 70.1207 167.456 117.297 205.392 136.136Z" fill="#F6BCB3" stroke="#5F7164"/>
<path d="M228.404 -18.6591C277.562 -26.632 273.762 -20.8544 273.762 -20.8544C273.762 -20.8544 280.414 -22.7825 258.346 21.7635C239.592 59.619 192.284 55.124 178.496 52.919C176.312 52.5694 174.809 50.5358 175.117 48.3456C177.055 34.5379 186.638 -11.885 228.404 -18.6591Z" fill="#F6BCB3" stroke="#5F7164"/>
<path d="M99.1733 120.048C143.848 142.234 141.896 135.584 141.896 135.584C141.896 135.584 147.694 139.398 139.55 90.2762C132.633 48.5545 86.1474 38.825 72.2986 36.8403C70.1006 36.5256 68.0561 38.0361 67.7119 40.2297C65.5485 54.0325 61.236 101.209 99.1733 120.048Z" fill="#F6BCB3" stroke="#5F7164"/>
<path d="M122.184 -34.7478C171.342 -42.7207 167.543 -36.943 167.543 -36.943C167.543 -36.943 174.194 -38.8711 152.126 5.67491C133.372 43.5304 86.0641 39.0354 72.2768 36.8303C70.0928 36.4808 68.5896 34.4472 68.897 32.257C70.8345 18.45 80.4176 -27.9729 122.184 -34.7478Z" fill="#F6BCB3" stroke="#5F7164"/>
<path d="M24.9221 298.211C24.9221 298.211 24.6618 305.129 62.556 272.939C67.7661 268.513 71.7132 263.629 74.656 258.5C72.5052 261.184 70.02 263.767 67.1451 266.209C29.2504 298.399 29.5113 291.481 29.5113 291.481C29.5113 291.481 24.823 296.565 20.6554 246.963C19.5862 234.237 22.7405 223.485 28.0165 214.525C20.1115 224.667 14.715 237.604 16.0663 253.693C20.2338 303.295 24.9221 298.211 24.9221 298.211Z" fill="black" stroke="#5F7164"/>
<path d="M-16.4212 199.099C-16.4212 199.099 -16.6815 206.016 21.2127 173.826C26.4223 169.401 30.3695 164.517 33.3127 159.387C31.1619 162.071 28.6767 164.654 25.8018 167.096C-12.0929 199.287 -11.832 192.369 -11.832 192.369C-11.832 192.369 -16.5203 197.453 -20.6878 147.85C-21.7571 135.124 -18.6028 124.372 -13.3268 115.413C-21.2317 125.554 -26.6283 138.491 -25.277 154.58C-21.1099 204.183 -16.4212 199.099 -16.4212 199.099Z" fill="black" stroke="#5F7164"/>
<path d="M100.286 141.138C149.94 137.137 144.834 132.439 144.834 132.439C144.834 132.439 146.292 132.495 144.739 128.887C139.351 130.511 128.108 132.536 104.875 134.408C63.1345 137.77 42.428 95.958 36.8879 82.5447C35.9273 82.921 35.061 83.2748 34.3087 83.5929C32.2628 84.4576 31.2911 86.808 32.1304 88.8652C37.413 101.819 58.117 144.536 100.286 141.138Z" fill="black" stroke="#5F7164"/>
<path d="M205.392 136.136C250.067 158.322 248.115 151.672 248.115 151.672C248.115 151.672 249.846 152.811 250.088 145.827C246.034 145.415 235.787 142.221 209.981 129.406C174.664 111.868 175.963 69.7744 178.057 52.9089C176.041 52.851 174.251 54.2801 173.932 56.3183C171.767 70.1207 167.456 117.297 205.392 136.136Z" fill="black" stroke="#5F7164"/>
<path d="M178.496 52.919C191.864 55.0563 236.742 59.3456 256.554 25.1027C235.104 52.0118 195.502 48.1742 183.086 46.1889C180.902 45.8393 179.398 43.8064 179.706 41.6156C180.734 34.2893 183.915 17.7809 192.913 2.88529C180.359 19.2068 176.302 39.8904 175.117 48.3456C174.809 50.5358 176.312 52.5694 178.496 52.919Z" fill="black" stroke="#5F7164"/>
<path d="M99.1733 120.048C143.848 142.234 141.896 135.584 141.896 135.584C141.896 135.584 143.627 136.722 143.869 129.739C139.815 129.327 129.568 126.133 103.762 113.318C68.4442 95.7797 69.7442 53.6862 71.8377 36.8208C69.8225 36.7628 68.0317 38.1919 67.7126 40.2301C65.5485 54.0325 61.2361 101.209 99.1733 120.048Z" fill="black" stroke="#5F7164"/>
<path d="M72.2768 36.8303C85.6439 38.9677 130.522 43.257 150.335 9.01402C128.885 35.9232 89.2828 32.0856 76.866 30.1003C74.6819 29.7507 73.1783 27.7178 73.4862 25.527C74.5145 18.2007 77.6956 1.69226 86.6937 -13.204C74.1391 3.11821 70.0833 23.8011 68.897 32.257C68.5899 34.4483 70.0923 36.4814 72.2768 36.8303Z" fill="black" stroke="#5F7164"/>
<path d="M1.65143 24.4562C2.29529 23.512 3.21098 22.7374 4.34447 22.265C7.45837 20.9662 11.0358 22.4374 12.3347 25.5513L117.828 278.852C119.128 281.966 117.654 285.545 114.542 286.842C111.428 288.142 107.851 286.67 106.552 283.556L1.05821 30.2552C0.232129 28.2742 0.526633 26.1058 1.65143 24.4562Z" fill="black" stroke="#5F7164"/>
<path d="M1.9149 23.503C3.19665 21.6233 5.48161 20.5381 7.8811 20.9014L272.845 61.2686C276.181 61.7737 278.476 64.8874 277.971 68.2235C277.465 71.5602 274.351 73.855 271.015 73.3488L6.05088 32.9823C2.71479 32.4772 0.420007 29.3635 0.925548 26.0268C1.06751 25.0913 1.41468 24.2366 1.9149 23.503Z" fill="black" stroke="#5F7164"/>
<path d="M116.581 356.523C154.638 388.77 154.343 381.852 154.343 381.852C154.343 381.852 159.056 386.944 162.973 337.347C166.301 295.213 123.469 274.612 110.502 269.366C108.446 268.533 106.101 269.508 105.239 271.551C99.815 284.414 84.2608 329.139 116.581 356.523Z" fill="#F6BCB3" stroke="#5F7164"/>
<path d="M154.343 381.852C154.343 381.852 155.874 383.501 157.915 375.744C155.542 375.698 147.62 372.205 121.17 349.794C91.8379 324.941 101.937 285.807 108.11 269.169C106.867 269.443 105.771 270.292 105.239 271.552C99.815 284.414 84.2615 329.139 116.581 356.525C154.638 388.77 154.343 381.852 154.343 381.852Z" fill="black" stroke="#5F7164"/>
<path d="M345.187 103.545C392.381 87.734 386.298 84.3954 386.298 84.3954C386.298 84.3954 393.084 83.0069 352.566 53.91C318.158 29.2012 278.514 55.1133 267.34 63.4905C265.563 64.8219 265.187 67.3346 266.493 69.1287C274.73 80.4369 305.099 116.975 345.187 103.545Z" fill="#F6BCB3" stroke="#5F7164"/>
<path d="M345.187 103.545C392.381 87.734 386.298 84.3954 386.298 84.3954C386.298 84.3954 387.272 84.1941 386.274 82.3599C381.113 85.263 370.666 89.817 349.776 96.8152C309.688 110.246 279.319 73.7068 271.082 62.3993C270.813 62.0293 270.633 61.6255 270.503 61.2109C269.282 62.0574 268.222 62.8289 267.339 63.4907C265.562 64.8221 265.186 67.3348 266.492 69.1289C274.73 80.4369 305.099 116.975 345.187 103.545Z" fill="black" stroke="#5F7164"/>
<path d="M98.0478 265.689C100.685 261.822 105.782 260.16 110.273 261.977C124.395 267.691 170.189 289.923 166.542 336.101C165.192 353.187 163.587 365.825 161.773 373.665C160.293 380.058 158.48 384.602 154.439 386.005C154.385 386.024 154.33 386.042 154.275 386.06C154.235 386.081 154.193 386.101 154.152 386.121C150.312 388 145.804 386.08 140.217 382.617C133.359 378.368 123.23 370.576 110.11 359.459C74.6845 329.442 91.1864 281.447 97.0886 267.452C97.3532 266.824 97.6761 266.234 98.0478 265.689ZM149.156 373.687C150.316 369.799 152.413 359.815 154.361 335.141C157.213 299.024 121.472 280.054 107.573 274.09C102.011 288.097 90.3014 326.661 118.008 350.138C130.669 360.865 140.306 368.299 146.653 372.232C147.672 372.863 148.497 373.334 149.156 373.687ZM156.297 375.97C156.297 375.97 156.297 375.969 156.296 375.968C156.297 375.969 156.296 375.97 156.297 375.97Z" fill="#5F7164"/>
<path d="M145.717 380.388C145.716 380.385 145.717 380.383 145.717 380.381M98.0478 265.689C100.685 261.822 105.782 260.16 110.273 261.977C124.395 267.691 170.189 289.923 166.542 336.101C165.192 353.187 163.587 365.825 161.773 373.665C160.293 380.058 158.48 384.602 154.439 386.005C154.385 386.024 154.33 386.042 154.275 386.06C154.235 386.081 154.193 386.101 154.152 386.121C150.312 388 145.804 386.08 140.217 382.617C133.359 378.368 123.23 370.576 110.11 359.459C74.6845 329.442 91.1864 281.447 97.0886 267.452C97.3532 266.824 97.6761 266.234 98.0478 265.689ZM149.156 373.687C150.316 369.799 152.413 359.815 154.361 335.141C157.213 299.024 121.472 280.054 107.573 274.09C102.011 288.097 90.3014 326.661 118.008 350.138C130.669 360.865 140.306 368.299 146.653 372.232C147.672 372.863 148.497 373.334 149.156 373.687ZM156.297 375.97C156.297 375.97 156.297 375.969 156.296 375.968C156.297 375.969 156.296 375.97 156.297 375.97Z" stroke="#5F7164"/>
<path d="M17.9354 212.743C31.4927 192.861 54.1829 182.115 63.394 178.395C68.4939 176.337 74.3976 178.776 76.5553 183.833C82.5347 197.84 99.3052 245.869 63.9889 275.869C50.9306 286.962 40.842 294.738 34.0037 298.98C28.4326 302.437 23.9349 304.357 20.0909 302.49C20.0419 302.467 19.9933 302.442 19.9457 302.417C19.8984 302.402 19.8532 302.386 19.8063 302.371C15.7648 300.985 13.93 296.447 12.4187 290.062C10.5629 282.221 8.89404 269.577 7.4573 252.478C6.10994 236.447 10.7341 223.303 17.9354 212.743ZM66.0942 190.505C57.1207 194.349 39.0098 203.635 28.185 219.507C22.2946 228.144 18.5636 238.729 19.6322 251.455C21.7148 276.249 23.8721 286.216 25.0498 290.072C28.6022 288.172 37.151 282.634 56.0776 266.557C83.6641 243.123 71.7309 204.513 66.0942 190.505Z" fill="#5F7164"/>
<path d="M17.9156 292.337C17.9156 292.337 17.9152 292.338 17.9147 292.339M28.5047 296.707C28.5052 296.706 28.5052 296.706 28.505 296.705M17.9354 212.743C31.4927 192.861 54.1829 182.115 63.394 178.395C68.4939 176.337 74.3976 178.776 76.5553 183.833C82.5347 197.84 99.3052 245.869 63.9889 275.869C50.9306 286.962 40.842 294.738 34.0037 298.98C28.4326 302.437 23.9349 304.357 20.0909 302.49C20.0419 302.466 19.9933 302.442 19.9457 302.417C19.8984 302.402 19.8532 302.386 19.8063 302.371C15.7648 300.985 13.93 296.447 12.4187 290.062C10.5629 282.221 8.89404 269.577 7.4573 252.478C6.10993 236.447 10.7341 223.303 17.9354 212.743ZM66.0942 190.505C57.1207 194.349 39.0098 203.635 28.185 219.507C22.2946 228.144 18.5636 238.729 19.6322 251.455C21.7148 276.249 23.8721 286.216 25.0498 290.072C28.6022 288.172 37.151 282.634 56.0776 266.557C83.6641 243.123 71.7309 204.513 66.0942 190.505Z" stroke="#5F7164"/>
<path d="M66.3359 178.974C67.3983 177.416 68.9004 176.137 70.7532 175.354C84.7506 169.438 132.765 152.875 162.877 188.196C174.028 201.276 181.847 211.377 186.115 218.218C189.594 223.796 191.529 228.298 189.657 232.145C189.635 232.189 189.614 232.233 189.591 232.276C189.575 232.328 189.558 232.38 189.54 232.431C188.147 236.475 183.601 238.297 177.203 239.787C169.358 241.613 156.706 243.239 139.599 244.617C93.3858 248.339 71.042 202.653 65.295 188.561C63.9628 185.295 64.4727 181.706 66.3359 178.974ZM153.579 196.122C130.02 168.488 91.4221 180.251 77.4017 185.832C83.402 199.704 102.461 235.349 138.617 232.437C163.332 230.446 173.326 228.332 177.214 227.167C175.283 223.592 169.691 215.023 153.579 196.122Z" fill="#5F7164"/>
<path d="M75.5086 186.609L75.504 186.616M183.887 223.723C183.886 223.723 183.884 223.723 183.882 223.722M183.905 223.723C183.901 223.723 183.897 223.723 183.893 223.723M179.511 234.316C179.511 234.316 179.51 234.316 179.51 234.315M66.3359 178.974C67.3983 177.416 68.9004 176.137 70.7532 175.354C84.7506 169.438 132.765 152.875 162.877 188.196C174.028 201.276 181.847 211.377 186.115 218.218C189.594 223.796 191.529 228.298 189.657 232.145C189.635 232.189 189.614 232.233 189.591 232.276C189.575 232.328 189.558 232.38 189.54 232.431C188.147 236.475 183.601 238.297 177.203 239.787C169.358 241.613 156.706 243.239 139.599 244.617C93.3858 248.339 71.042 202.653 65.295 188.561C63.9628 185.295 64.4727 181.706 66.3359 178.974ZM153.579 196.122C130.02 168.488 91.4221 180.251 77.4017 185.832C83.402 199.704 102.461 235.349 138.617 232.437C163.332 230.446 173.326 228.332 177.214 227.167C175.283 223.592 169.691 215.023 153.579 196.122Z" stroke="#5F7164"/>
<path d="M-23.4079 113.63C-9.85105 93.7485 12.8392 83.0027 22.0502 79.2832C27.1483 77.2245 33.0525 79.6632 35.2111 84.7189C41.1898 98.7281 57.9562 146.763 22.6457 176.757C9.58729 187.849 -0.501275 195.626 -7.33957 199.868C-12.9107 203.324 -17.4084 205.244 -21.2524 203.377C-21.3014 203.354 -21.3499 203.329 -21.3976 203.304C-21.4449 203.289 -21.4901 203.273 -21.537 203.258C-25.5785 201.872 -27.4133 197.335 -28.9246 190.949C-30.7804 183.109 -32.4493 170.464 -33.886 153.365C-35.2334 137.334 -30.6101 124.192 -23.4079 113.63ZM24.7511 91.3934C15.7776 95.2374 -2.33373 104.524 -13.1575 120.396C-19.0483 129.033 -22.7795 139.618 -21.7102 152.344C-19.6276 177.137 -17.4703 187.105 -16.2926 190.961C-12.7402 189.061 -4.19136 183.523 14.7352 167.445C42.3215 144.011 30.3871 105.401 24.7511 91.3934Z" fill="#5F7164"/>
<path d="M-23.4276 193.225C-23.4276 193.225 -23.4281 193.225 -23.4286 193.226M-12.8385 197.594C-12.8381 197.593 -12.8381 197.593 -12.8383 197.592M-23.4079 113.63C-9.85105 93.7485 12.8392 83.0027 22.0502 79.2832C27.1483 77.2245 33.0525 79.6632 35.2111 84.7189C41.1898 98.7281 57.9562 146.763 22.6457 176.757C9.58729 187.849 -0.501274 195.626 -7.33957 199.868C-12.9107 203.324 -17.4084 205.244 -21.2524 203.377C-21.3014 203.354 -21.3499 203.329 -21.3976 203.304C-21.4449 203.289 -21.4901 203.273 -21.537 203.258C-25.5785 201.872 -27.4133 197.335 -28.9246 190.949C-30.7804 183.109 -32.4493 170.464 -33.886 153.365C-35.2334 137.334 -30.6101 124.192 -23.4079 113.63ZM24.7511 91.3934C15.7776 95.2374 -2.33373 104.524 -13.1575 120.396C-19.0483 129.033 -22.7795 139.618 -21.7102 152.344C-19.6276 177.137 -17.4703 187.105 -16.2926 190.961C-12.7402 189.061 -4.19136 183.523 14.7352 167.445C42.3215 144.011 30.3871 105.401 24.7511 91.3934Z" stroke="#5F7164"/>
<path d="M25.0036 79.8507C26.0646 78.2947 27.564 77.0169 29.4085 76.2378C35.9986 73.4572 49.3607 68.6167 64.8287 67.4375C68.1931 67.181 71.1288 69.7004 71.3846 73.0643C71.6415 76.428 69.1214 79.3632 65.7577 79.6202C53.3588 80.5654 42.4147 84.1877 36.0584 86.7165C42.6681 101.972 61.5759 136.2 97.2714 133.324C118.634 131.602 128.952 129.799 133.844 128.59C134.65 128.391 135.317 128.207 135.866 128.041C134.436 125.093 135.591 121.52 138.51 119.978C141.494 118.402 145.19 119.543 146.766 122.527C148.528 125.861 150.051 129.701 148.257 133.152C147.602 135.259 145.962 136.965 143.364 138.237C141.75 139.03 139.593 139.755 136.775 140.452C129.019 142.369 116.058 144.068 98.2524 145.503C78.9715 147.056 61.6906 140.206 46.8901 125.144C35.1109 113.156 27.949 98.7926 24.7281 91.2969L24.5769 90.9562C24.5597 90.9179 24.5434 90.8782 24.5273 90.8396L24.2033 90.0626C24.144 89.9255 24.0867 89.7868 24.0326 89.6435L23.9379 89.4064C22.6298 86.1471 23.1482 82.5717 25.0036 79.8507Z" fill="#5F7164"/>
<path d="M142.548 124.608C142.546 124.608 142.545 124.608 142.543 124.608M142.565 124.609C142.562 124.608 142.558 124.608 142.554 124.608M138.178 135.208C138.177 135.208 138.177 135.207 138.177 135.207M25.0036 79.8507C26.0646 78.2947 27.564 77.0169 29.4085 76.2378C35.9986 73.4572 49.3607 68.6167 64.8287 67.4375C68.1931 67.181 71.1288 69.7004 71.3846 73.0643C71.6415 76.428 69.1214 79.3632 65.7577 79.6202C53.3588 80.5654 42.4147 84.1877 36.0584 86.7165C42.6681 101.972 61.5759 136.2 97.2714 133.324C118.634 131.602 128.952 129.799 133.844 128.59C134.65 128.391 135.317 128.207 135.866 128.041C134.436 125.093 135.591 121.52 138.51 119.978C141.494 118.402 145.19 119.543 146.766 122.527C148.528 125.861 150.051 129.701 148.257 133.152C147.602 135.259 145.962 136.965 143.364 138.237C141.75 139.03 139.593 139.755 136.775 140.452C129.019 142.369 116.058 144.068 98.2524 145.503C78.9715 147.056 61.6906 140.206 46.8901 125.144C35.1109 113.156 27.9491 98.7926 24.7281 91.2969L24.5769 90.9562C24.5597 90.9179 24.5434 90.8782 24.5273 90.8396L24.2033 90.0626C24.144 89.9255 24.0867 89.7868 24.0326 89.6435L23.9379 89.4064C22.6298 86.1471 23.1482 82.5717 25.0036 79.8507Z" stroke="#5F7164"/>
<path d="M-0.870265 22.7308C-0.226407 21.7866 0.689294 21.0119 1.82278 20.5396C4.93667 19.2407 8.51413 20.712 9.81299 23.8259L109.962 263.912C111.262 267.026 109.788 270.605 106.676 271.902C103.562 273.202 99.9846 271.73 98.6858 268.616L-1.46346 28.5298C-2.29 26.5494 -1.99553 24.381 -0.870265 22.7308Z" fill="#5F7164" stroke="#5F7164"/>
<path d="M258.873 59.2609C259.482 58.3672 260.244 57.5588 261.153 56.8781C273.308 47.7663 315.895 20.1414 353.607 47.2225C367.574 57.2523 377.591 65.1878 383.377 70.8084C388.093 75.3887 391.05 79.2963 390.157 83.4785C390.146 83.5238 390.136 83.5691 390.126 83.6144C390.123 83.6713 390.118 83.728 390.113 83.7846C389.732 88.0445 385.759 90.9051 379.913 93.8891C372.743 97.5472 360.864 102.165 344.606 107.611C300.669 122.331 268 83.3102 259.033 70.9993C256.446 67.449 256.515 62.7181 258.873 59.2609ZM376.88 81.6288C374.145 78.6178 366.659 71.638 346.481 57.1472C316.983 35.9649 282.383 56.6583 270.131 65.4458C279.286 77.4783 306.354 107.542 340.725 96.0275C356.411 90.7722 367.727 86.3913 374.36 83.0077C375.417 82.467 376.242 82.0087 376.88 81.6288Z" fill="#5F7164"/>
<path d="M382.551 76.685C382.548 76.6861 382.545 76.686 382.542 76.6867M380.837 88.0269C380.835 88.0255 380.833 88.0241 380.831 88.0239M258.873 59.2609C259.482 58.3672 260.244 57.5588 261.153 56.8781C273.308 47.7663 315.895 20.1414 353.607 47.2225C367.574 57.2523 377.591 65.1878 383.377 70.8084C388.093 75.3887 391.05 79.2963 390.157 83.4785C390.146 83.5238 390.136 83.5691 390.126 83.6144C390.123 83.6713 390.118 83.728 390.113 83.7846C389.732 88.0445 385.759 90.9051 379.913 93.8891C372.743 97.5472 360.864 102.165 344.606 107.611C300.669 122.331 268 83.3102 259.033 70.9993C256.446 67.449 256.515 62.7181 258.873 59.2609ZM376.88 81.6288C374.145 78.6178 366.659 71.638 346.481 57.1472C316.983 35.9649 282.383 56.6583 270.131 65.4458C279.286 77.4783 306.354 107.542 340.725 96.0275C356.411 90.7722 367.727 86.3913 374.36 83.0077C375.417 82.467 376.242 82.0087 376.88 81.6288Z" stroke="#5F7164"/>
<path d="M167.005 49.5276C169.128 46.4143 172.911 44.5897 176.863 45.1559C191.934 47.3163 241.694 57.916 249.275 103.64C252.08 120.563 253.567 133.226 253.694 141.277C253.798 147.842 253.132 152.69 249.546 155.024C249.499 155.054 249.452 155.085 249.404 155.114C249.368 155.146 249.332 155.176 249.296 155.207C246.019 157.955 241.182 157.171 234.927 155.148C227.252 152.666 215.552 147.53 200.154 139.883C158.576 119.236 163.022 68.6568 165.374 53.647C165.613 52.124 166.185 50.7296 167.005 49.5276ZM241.453 144.344C241.643 140.292 241.274 130.09 237.221 105.639C231.29 69.8669 192.067 60.0205 177.151 57.563C175.13 72.5095 173.069 112.785 205.589 128.94C227.85 139.994 237.518 143.338 241.453 144.344ZM239.727 151.652C239.727 151.65 239.727 151.649 239.726 151.649C239.727 151.649 239.726 151.651 239.727 151.652ZM239.731 151.668C239.73 151.666 239.73 151.662 239.728 151.658C239.729 151.661 239.731 151.665 239.731 151.668Z" fill="#5F7164" stroke="#5F7164"/>
<path d="M183.047 0.851209C191.816 -12.0079 205.031 -23.1915 224.904 -26.4144C241.851 -29.1632 254.53 -30.6069 262.589 -30.7062C269.152 -30.7869 274 -30.1051 276.323 -26.5196C276.349 -26.48 276.374 -26.4395 276.4 -26.3993C276.436 -26.3575 276.472 -26.3151 276.508 -26.2721C279.25 -22.9937 278.475 -18.1652 276.469 -11.9248C274.006 -4.26516 268.902 7.40097 261.298 22.7504C240.734 64.2597 190.054 59.6327 175.01 57.2274C169.578 56.359 165.78 51.2206 166.544 45.7727C167.741 37.2498 171.61 17.6245 183.047 0.851209ZM226.861 -14.354C191.074 -8.54915 181.356 30.583 178.949 45.4601C193.912 47.5335 234.286 49.759 250.35 17.3254C257.685 2.51792 262.559 -8.58171 264.837 -15.6654C265.205 -16.8113 265.464 -17.7291 265.646 -18.454C261.609 -18.6612 251.4 -18.3335 226.861 -14.354ZM266.13 -25.9265L266.131 -25.9279L266.13 -25.9265Z" fill="#5F7164" stroke="#5F7164"/>
<path d="M60.7848 33.4396C62.9078 30.3263 66.6907 28.5017 70.6421 29.0674C85.7141 31.2276 135.474 41.8281 143.054 87.5524C145.86 104.475 147.347 117.138 147.474 125.189C147.578 131.755 146.911 136.604 143.326 138.937C143.279 138.967 143.232 138.997 143.185 139.025C143.148 139.057 143.113 139.088 143.076 139.119C139.799 141.867 134.962 141.082 128.706 139.06C121.032 136.577 109.332 131.442 93.9342 123.794C52.3557 103.147 56.8016 52.5689 59.1541 37.559C59.3937 36.0365 59.9652 34.6416 60.7848 33.4396ZM135.233 128.256C135.424 124.203 135.054 114.002 131 89.5503C125.07 53.779 85.8466 43.9321 70.93 41.4746C68.909 56.4206 66.8474 96.6972 99.368 112.852C121.63 123.906 131.298 127.25 135.233 128.256ZM133.512 135.581C133.511 135.578 133.51 135.575 133.509 135.571C133.51 135.574 133.51 135.578 133.512 135.581Z" fill="#5F7164"/>
<path d="M142.723 128.75C142.722 128.749 142.722 128.749 142.722 128.749M60.7848 33.4396C62.9078 30.3263 66.6907 28.5017 70.6421 29.0674C85.7141 31.2276 135.474 41.8281 143.054 87.5524C145.86 104.475 147.347 117.138 147.474 125.189C147.578 131.755 146.911 136.604 143.326 138.937C143.279 138.967 143.232 138.997 143.185 139.025C143.148 139.057 143.113 139.088 143.076 139.119C139.799 141.867 134.962 141.082 128.706 139.06C121.032 136.577 109.332 131.442 93.9342 123.794C52.3557 103.147 56.8016 52.5689 59.1541 37.559C59.3937 36.0365 59.9652 34.6416 60.7848 33.4396ZM135.233 128.256C135.424 124.203 135.054 114.002 131 89.5503C125.07 53.779 85.8466 43.9321 70.93 41.4746C68.909 56.4206 66.8474 96.6972 99.368 112.852C121.63 123.906 131.298 127.25 135.233 128.256ZM133.512 135.581C133.511 135.578 133.51 135.575 133.509 135.571C133.51 135.574 133.51 135.578 133.512 135.581Z" stroke="#5F7164"/>
<path d="M76.8273 -15.2367C85.5958 -28.0959 98.8117 -39.279 118.684 -42.5024C135.63 -45.2516 148.31 -46.6948 156.369 -46.7942C162.932 -46.8748 167.78 -46.1937 170.103 -42.6071C170.13 -42.5675 170.154 -42.527 170.179 -42.4872C170.216 -42.4455 170.252 -42.4031 170.289 -42.3596C173.03 -39.0812 172.256 -34.2527 170.249 -28.0117C167.787 -20.352 162.682 -8.68653 155.079 6.66287C134.516 48.1691 83.8349 43.5452 68.791 41.14C63.3584 40.2711 59.5609 35.132 60.3255 29.6845C61.5218 21.1605 65.3909 1.53639 76.8273 -15.2367ZM159.439 -34.5409C155.41 -34.7491 145.21 -34.4273 120.642 -30.4422C104.803 -27.8732 94.068 -18.7714 86.8153 -8.13815C77.6823 5.25423 74.0718 21.0794 72.7293 29.3726C87.6921 31.4456 128.065 33.6731 144.13 1.23789C155.147 -20.9996 158.453 -30.6337 159.439 -34.5409ZM159.91 -42.0145L159.911 -42.0158L159.91 -42.0145ZM166.712 -32.7974L166.711 -32.7972L166.712 -32.7974Z" fill="#5F7164" stroke="#5F7164"/>
<path d="M-0.606582 21.7787C0.675169 19.899 2.96013 18.8138 5.35961 19.1772L262.662 58.1474C265.998 58.6525 268.293 61.7662 267.788 65.1023C267.282 68.439 264.168 70.7338 260.832 70.2276L3.52986 31.2573C0.193774 30.7523 -2.10101 27.6386 -1.59547 24.3018C-1.45465 23.3666 -1.10634 22.5117 -0.606582 21.7787Z" fill="#5F7164" stroke="#5F7164"/>
</g>
<defs>
<clipPath id="clip0_2_64">
<rect width="417.065" height="417.065" fill="white" transform="translate(430.544 77.9646) rotate(124.29)"/>
</clipPath>
</defs>
</svg>
