<svg width="44" height="44" viewBox="0 0 44 44" fill="none" xmlns="http://www.w3.org/2000/svg">
<path d="M11.6938 10.4008H22.6986C23.2682 10.4008 23.7303 9.93871 23.7303 9.3691C23.7303 8.7993 23.2682 8.3374 22.6986 8.3374H11.6938C11.124 8.3374 10.6621 8.7993 10.6621 9.3691C10.6621 9.93891 11.124 10.4008 11.6938 10.4008Z" fill="#5F7164"/>
<path d="M11.6938 15.4906H26.6879C27.2575 15.4906 27.7196 15.0288 27.7196 14.4589C27.7196 13.8892 27.2575 13.4272 26.6879 13.4272H11.6938C11.124 13.4272 10.6621 13.8892 10.6621 14.4589C10.6621 15.0289 11.124 15.4906 11.6938 15.4906Z" fill="#5F7164"/>
<path d="M7.50758 3.0951H30.8742V19.2694C31.2814 19.3871 31.631 19.5633 31.9169 19.7237C32.4006 19.4523 33.0657 19.1341 33.8866 19.1341C33.9145 19.1341 33.9416 19.1365 33.9693 19.1372V3.0951C33.9693 1.38578 32.5835 0 30.8742 0H7.50758C5.79826 0 4.41248 1.38578 4.41248 3.0951V37.5842C4.41248 39.2935 5.79826 40.6793 7.50758 40.6793H26.2501V37.5842H7.50758V3.0951Z" fill="#5F7164"/>
<path d="M38.7327 26.9263C38.5024 26.7212 38.2407 26.4886 38.1836 26.312C38.121 26.1189 38.1939 25.7802 38.264 25.4524C38.3743 24.9387 38.4995 24.3566 38.1817 23.92C37.8614 23.4794 37.2653 23.419 36.7395 23.3657C36.4241 23.3335 36.0668 23.2975 35.9073 23.1811C35.7514 23.0676 35.6087 22.7422 35.4828 22.4552C35.2688 21.9677 35.0266 21.4153 34.5017 21.245C34.4051 21.2136 34.3023 21.1978 34.1964 21.1978C33.7945 21.1978 33.4089 21.4216 33.0361 21.6383C32.7419 21.8091 32.4376 21.9858 32.2266 21.9858C32.0155 21.9858 31.7114 21.8091 31.417 21.6383C31.0442 21.4216 30.6585 21.1978 30.2567 21.1978C30.1508 21.1978 30.0482 21.2136 29.9514 21.245C29.4267 21.4153 29.1841 21.9678 28.9701 22.4552C28.8441 22.7422 28.7014 23.0678 28.5457 23.1811C28.3857 23.2975 28.0284 23.3337 27.7136 23.3657C27.1878 23.419 26.5918 23.4795 26.2713 23.92C25.9535 24.3564 26.0786 24.9386 26.189 25.4524C26.2594 25.7802 26.3323 26.119 26.2694 26.3121C26.2121 26.4886 25.9508 26.7212 25.7203 26.9263C25.3195 27.2828 24.8654 27.6869 24.8654 28.2478C24.8654 28.8085 25.3195 29.2126 25.7203 29.5692C25.9508 29.7742 26.2122 30.0067 26.2696 30.1835C26.3321 30.3765 26.2595 30.7154 26.189 31.0431C26.0786 31.5568 25.9535 32.1388 26.2713 32.5755C26.5918 33.0161 27.1879 33.0765 27.7136 33.1299C28.0288 33.162 28.386 33.198 28.5457 33.3144C28.7017 33.428 28.8444 33.7532 28.9703 34.0404C29.1841 34.5277 29.4267 35.08 29.9514 35.2505C30.0482 35.2819 30.151 35.2976 30.2569 35.2976C30.6586 35.2976 31.0442 35.0737 31.417 34.8572C31.7112 34.6863 32.0155 34.5096 32.2266 34.5096C32.4376 34.5096 32.7419 34.6862 33.0361 34.8572C33.4089 35.0737 33.7946 35.2976 34.1964 35.2976C34.3023 35.2976 34.4051 35.2817 34.5019 35.2505C35.0264 35.08 35.2688 34.5275 35.4826 34.0403C35.6088 33.7532 35.7514 33.4276 35.9073 33.3144C36.0672 33.198 36.4244 33.1618 36.7395 33.1298C37.2655 33.0765 37.8613 33.016 38.1817 32.5755C38.4995 32.1389 38.3743 31.5568 38.264 31.0431C38.1936 30.7154 38.1207 30.3765 38.1838 30.1835C38.2411 30.0067 38.5024 29.7742 38.7327 29.5691C39.1337 29.2126 39.5876 28.8085 39.5876 28.2478C39.5876 27.6869 39.1335 27.2828 38.7327 26.9263ZM32.2264 30.927C30.7466 30.927 29.547 29.7274 29.547 28.2476C29.547 26.7678 30.7466 25.5682 32.2264 25.5682C33.7061 25.5682 34.9057 26.7678 34.9057 28.2476C34.9057 29.7274 33.7061 30.927 32.2264 30.927Z" fill="#5F7164"/>
<path d="M34.7441 35.9969C34.569 36.0538 34.3846 36.0826 34.1961 36.0826C33.5828 36.0826 33.0609 35.7795 32.6416 35.5359C32.5227 35.4668 32.3377 35.3595 32.2265 35.311C32.1151 35.3595 31.9303 35.4669 31.8113 35.5359C31.3922 35.7793 30.87 36.0826 30.2571 36.0826C30.0685 36.0826 29.8842 36.0538 29.7089 35.997C29.191 35.8288 28.8599 35.4761 28.6234 35.0964V43.5758C28.6234 43.744 28.723 43.8962 28.8769 43.964C29.0306 44.0316 29.2101 44.0016 29.3344 43.888L32.2269 41.2281L35.1193 43.888C35.1989 43.9614 35.3019 43.9999 35.4064 43.9999C35.4639 43.9999 35.5219 43.9881 35.5765 43.964C35.7306 43.8964 35.83 43.744 35.83 43.5758V35.0923C35.5926 35.4707 35.2575 35.8304 34.7441 35.9969Z" fill="#5F7164"/>
</svg>
